<?xml version="1.0" encoding="utf-8"?>
<!-- Generator: Adobe Illustrator 24.3.0, SVG Export Plug-In . SVG Version: 6.00 Build 0)  -->
<svg version="1.1" id="Layer_1" xmlns="http://www.w3.org/2000/svg" xmlns:xlink="http://www.w3.org/1999/xlink" x="0px" y="0px"
	 viewBox="0 0 200 200" style="enable-background:new 0 0 200 200;" xml:space="preserve">
<style type="text/css">
	.st0{fill:#231F20;}
	.st1{fill:#FFFEF9;}
</style>
<path class="st0" d="M143.65,172.59H60.38c-19.15,0-34.67-15.52-34.67-34.67V61.7c0-19.15,15.52-34.67,34.67-34.67h83.27
	c19.15,0,34.67,15.52,34.67,34.67v76.22C178.32,157.07,162.8,172.59,143.65,172.59z"/>
<g>
	<path class="st1" d="M71.52,120.34c4.21-0.14,8.42,0.14,12.49-0.14c3.37-0.28,4.07,1.12,4.07,4.21c-0.14,6.18,0,12.35,0,18.53
		c0,10.25-0.14,19.79-0.14,30.04h24.42V120.2h19.09c0.98-8.14,1.96-15.86,3.09-24c-6.88,0-13.05-0.14-19.23,0
		c-2.25,0-3.09-0.56-3.09-2.95c0.14-4.21,0-8.42,0-12.49c0.14-5.33,2.95-8.14,8.14-8.14c3.79,0,7.72-0.14,11.51,0
		c2.11,0,2.95-0.7,2.95-2.81c-0.14-5.33-0.14-10.81,0-16.14c0-2.39-0.84-3.09-3.09-2.95c-5.89,0.14-11.65-0.14-17.54,0
		c-12.63,0.28-23.02,8.42-25.54,20.77c-0.98,4.91-0.56,10.11-0.7,15.16c-0.14,3.09,0,6.32,0,9.68c-5.89,0-11.23,0-16.56,0
		c-2.11,0-2.95,0.84-2.95,2.95c0.14,6.18,0.14,12.35,0,18.53C68.57,119.92,69.56,120.34,71.52,120.34z"/>
</g>
</svg>
