<?xml version="1.0" encoding="utf-8"?>
<!-- Generator: Adobe Illustrator 24.3.0, SVG Export Plug-In . SVG Version: 6.00 Build 0)  -->
<svg version="1.1" id="Layer_1" xmlns="http://www.w3.org/2000/svg" xmlns:xlink="http://www.w3.org/1999/xlink" x="0px" y="0px"
	 viewBox="0 0 200 200" style="enable-background:new 0 0 200 200;" xml:space="preserve">
<style type="text/css">
	.st0{fill:#231F20;}
</style>
<g>
	<g>
		<path class="st0" d="M179.35,56.47c-3.81-17.15-13.91-28.2-30.87-33.15c-6.86-1.91-13.91-2.29-20.96-2.29
			c-17.72-0.19-35.63-0.19-53.35,0c-6.1,0-12.19,0.38-18.29,1.71C39.3,26.56,28.06,36.46,23.29,52.85
			c-2.1,7.05-2.48,14.48-2.48,21.72c-0.19,17.72-0.19,35.63,0,53.35c0,6.1,0.38,12.19,1.71,18.29c4,17.91,15.05,29.15,32.96,33.54
			c7.43,1.71,14.86,1.71,22.48,1.91c7.81,0.19,15.43,0,23.25,0c7.81,0,15.62,0,23.44,0c7.05-0.19,14.29-0.19,21.34-1.71
			c18.1-4,29.53-15.05,33.73-33.15c1.71-7.43,1.91-15.05,1.91-22.67c0.19-15.43,0-30.68,0-46.11
			C180.87,70.95,180.87,63.71,179.35,56.47z M166.39,129.64c0,5.34-0.38,10.48-1.71,15.62c-3.24,11.62-10.86,18.48-22.67,20.77
			c-4.19,0.76-8.38,1.14-12.58,1.14c-19.24,0.19-38.49,0.19-57.54,0c-5.14,0-10.1-0.38-15.05-1.71
			c-11.62-3.24-18.29-10.86-20.77-22.48c-1.33-6.67-1.33-13.53-1.33-20.39c0-16.58,0-33.15,0.19-49.54c0-5.34,0.38-10.48,1.71-15.62
			c3.24-11.43,10.86-18.29,22.48-20.58c7.24-1.52,14.67-1.33,22.1-1.52c6.48-0.19,12.96,0,19.44,0v-0.19
			c11.24,0.19,22.48,0.38,33.73,0.76c6.1,0.19,11.81,1.33,17.15,4.19c7.43,4.19,11.62,10.67,13.53,18.67
			c1.14,4.76,1.33,9.53,1.33,14.48C166.58,91.91,166.58,110.78,166.39,129.64z"/>
	</g>
	<g>
		<path class="st0" d="M100.65,60.09C78.17,59.9,59.5,78.38,59.3,100.87c-0.19,23.06,18.1,41.73,40.97,41.73
			c22.87,0.19,41.54-18.29,41.73-41.16C142,78.57,123.71,60.09,100.65,60.09z M100.65,128.31c-14.86,0-27.06-12.19-26.87-27.06
			c0.19-14.86,12.19-26.87,26.87-26.87c14.86,0,26.87,12,26.87,26.87C127.52,116.3,115.51,128.31,100.65,128.31z"/>
	</g>
	<g>
		<path class="st0" d="M143.33,48.85c-5.34,0.19-9.53,4.57-9.34,9.91c0.19,5.34,4.57,9.53,9.91,9.34c5.34-0.19,9.72-4.57,9.53-9.91
			C153.05,52.85,148.67,48.66,143.33,48.85z"/>
	</g>
</g>
</svg>
