<?xml version="1.0" encoding="utf-8"?>
<!-- Generator: Adobe Illustrator 24.3.0, SVG Export Plug-In . SVG Version: 6.00 Build 0)  -->
<svg version="1.1" id="Layer_1" xmlns="http://www.w3.org/2000/svg" xmlns:xlink="http://www.w3.org/1999/xlink" x="0px" y="0px"
	 viewBox="0 0 200 200" style="enable-background:new 0 0 200 200;" xml:space="preserve">
<style type="text/css">
	.st0{fill:#231F20;}
	.st1{fill:#FFFEF9;}
</style>
<path class="st0" d="M133.72,174.55H69.15c-25.93,0-46.94-21.02-46.94-46.94V70.35c0-25.93,21.02-46.94,46.94-46.94h64.57
	c25.93,0,46.94,21.02,46.94,46.94v57.26C180.66,153.53,159.64,174.55,133.72,174.55z"/>
<g>
	<g>
		<path class="st1" d="M89.36,129.32c0,1.63,0.58,2.4,2.31,2.4c3.46-0.1,7.01-0.1,10.47,0c2.02,0.1,2.88-0.48,2.79-2.79
			c-0.1-7.49-0.1-14.89,0-22.38c0-1.63,0.19-3.27,0.58-4.8c0.86-4.04,3.94-6.24,8.17-6.15c4.04,0.1,6.15,2.02,6.92,6.44
			c0.29,1.54,0.38,3.07,0.38,4.61c0,7.59,0.1,15.28,0,22.86c0,1.63,0.58,2.21,2.11,2.21c3.65-0.1,7.3-0.1,10.95,0
			c2.02,0.1,2.5-0.86,2.5-2.69c-0.1-4.9,0.1-9.8-0.1-14.7c-0.19-6.15-0.19-12.3-0.86-18.35c-0.67-5.96-3.46-10.95-9.61-12.87
			c-8.07-2.5-15.56-1.73-21.62,5.67c0-1.35-0.1-2.11,0-2.88c0.29-2.21-0.58-3.07-2.88-2.98c-3.17,0.19-6.34,0.1-9.61,0
			c-1.83-0.1-2.69,0.48-2.69,2.5C89.45,100.11,89.36,114.72,89.36,129.32z"/>
	</g>
	<g>
		<path class="st1" d="M78.21,83.01c-3.55,0.1-7.11,0.1-10.76,0c-1.83-0.1-2.31,0.77-2.31,2.4c0,14.7,0,29.4,0,44.1
			c0,1.73,0.67,2.31,2.4,2.31c3.55-0.1,7.11-0.1,10.76,0c2.02,0.1,2.5-0.77,2.4-2.59c-0.1-7.21,0-14.41,0-21.71s-0.1-14.6,0-21.9
			C80.81,83.49,80.13,82.92,78.21,83.01z"/>
	</g>
	<g>
		<path class="st1" d="M72.93,77.15c4.8,0,8.93-4.03,9.03-8.84c0.1-4.71-4.32-9.22-9.03-9.13c-4.8,0.1-8.84,4.23-8.84,9.03
			C64.09,73.02,68.22,77.15,72.93,77.15z"/>
	</g>
</g>
</svg>
