<?xml version="1.0" encoding="utf-8"?>
<!-- Generator: Adobe Illustrator 24.3.0, SVG Export Plug-In . SVG Version: 6.00 Build 0)  -->
<svg version="1.1" id="Layer_1" xmlns="http://www.w3.org/2000/svg" xmlns:xlink="http://www.w3.org/1999/xlink" x="0px" y="0px"
	 viewBox="0 0 200 200" style="enable-background:new 0 0 200 200;" xml:space="preserve">
<style type="text/css">
	.st0{fill:#231F20;}
</style>
<g>
	<path class="st0" d="M19.11,144.14c0.18,0.18,0.53,0.36,0.71,0.53c3.73,2.31,7.46,4.26,11.54,6.04c10.66,4.8,21.84,7.46,33.39,7.99
		c5.15,0.18,10.3,0.18,15.45-0.36c4.26-0.53,8.52-1.07,12.79-2.13c18.11-4.26,33.39-13.32,45.82-26.99
		c11.01-12.08,18.29-25.93,22.38-41.56c1.42-5.51,2.49-11.19,2.84-16.87c0.18-3.37,0.36-6.57,0.18-9.95c0-0.71,0.18-1.24,0.71-1.6
		c5.86-4.26,10.83-9.59,15.1-15.45c0.18-0.18,0.36-0.36,0.36-0.89c-6.04,2.49-12.08,4.26-18.47,4.8c0.18-0.18,0.36-0.36,0.71-0.53
		c6.22-4.08,10.66-9.59,13.32-16.69c0.18-0.18,0.18-0.53,0.36-0.89c-0.36,0.18-0.71,0.36-0.89,0.53
		c-6.04,3.37-12.43,5.86-19.36,7.28c-0.53,0.18-0.89,0-1.42-0.53c-8.88-8.52-19.36-11.72-31.26-9.06
		c-17.05,3.91-28.42,20.78-25.04,38.54c0,0.53,0.18,0.89,0.18,1.6c-6.75-0.36-13.14-1.24-19.54-3.02
		C59.24,59.61,42.9,48.95,29.58,33.14c-2.84,4.97-4.26,10.12-4.44,15.63c-0.18,12.08,4.97,21.49,14.56,28.77
		c-2.66,0-5.15-0.36-7.64-1.07c-2.49-0.71-4.8-1.6-7.28-2.84c0,5.68,1.24,11.01,3.91,15.81c4.97,9.06,12.61,14.74,22.55,17.05
		c-0.18,0.18-0.36,0.18-0.71,0.36c-4.26,1.07-8.7,1.24-13.14,0.53c-0.36,0-0.53,0-0.89,0c0.89,2.66,2.13,5.15,3.55,7.46
		s3.2,4.44,5.15,6.22c1.95,1.95,4.26,3.55,6.57,4.8c2.31,1.42,4.8,2.31,7.46,3.02c2.66,0.71,5.33,1.07,7.99,1.24
		c-4.26,3.55-8.88,6.22-14.03,8.52C42.73,143.61,31.18,145.38,19.11,144.14z M108.79,143.07L108.79,143.07
		c0.18,0.18,0.18,0.18,0.18,0.36h-0.18C108.61,143.25,108.79,143.07,108.79,143.07z M108.79,144.85L108.79,144.85
		c0.18,0.18,0.18,0.18,0.18,0.36h-0.18C108.61,145.21,108.79,145.03,108.79,144.85z"/>
</g>
</svg>
